<?xml version="1.0" standalone="no"?>
<!DOCTYPE svg PUBLIC "-//W3C//DTD SVG 20010904//EN"
 "http://www.w3.org/TR/2001/REC-SVG-20010904/DTD/svg10.dtd">
<svg version="1.0" xmlns="http://www.w3.org/2000/svg"
 width="288.000000pt" height="288.000000pt" viewBox="0 0 288.000000 288.000000"
 preserveAspectRatio="xMidYMid meet">
<metadata>
Created by potrace 1.11, written by Peter Selinger 2001-2013
</metadata>
<g transform="translate(0.000000,288.000000) scale(0.100000,-0.100000)"
fill="#000000" stroke="none">
<path d="M1298 2840 c-90 -23 -202 -76 -273 -129 -31 -23 -70 -42 -103 -49
-88 -20 -158 -60 -225 -132 -113 -119 -157 -229 -218 -540 -22 -113 -60 -308
-85 -435 -25 -126 -65 -300 -89 -385 -60 -213 -93 -380 -107 -542 l-12 -138
29 -30 c16 -16 30 -28 33 -26 2 3 12 -3 22 -12 25 -23 36 -31 98 -72 28 -19
52 -38 52 -42 0 -5 7 -8 15 -8 8 0 15 -5 15 -11 0 -5 5 -7 10 -4 6 3 13 -1 16
-9 3 -9 10 -13 15 -10 5 3 9 0 9 -6 0 -6 5 -8 10 -5 6 3 13 -1 16 -9 3 -9 10
-13 15 -10 5 3 9 0 9 -6 0 -6 5 -8 10 -5 6 3 10 1 10 -6 0 -7 3 -10 6 -6 3 3
14 -3 25 -14 11 -11 24 -17 28 -14 9 5 113 -38 182 -75 31 -17 255 -80 283
-80 6 0 -32 40 -83 90 -51 49 -91 95 -89 101 4 11 50 31 208 88 98 35 97 34
105 81 l7 41 36 -8 c46 -9 238 -9 274 0 25 7 28 4 40 -40 13 -44 16 -48 78
-74 36 -15 99 -39 141 -55 l75 -28 -4 -78 c-3 -43 -1 -78 4 -78 20 0 174 52
174 58 0 10 108 56 134 58 11 1 25 9 31 18 7 8 15 13 18 9 4 -3 7 -1 7 6 0 7
5 9 10 6 6 -3 10 -2 10 2 0 5 9 14 21 21 14 9 19 10 14 2 -6 -9 -2 -9 14 0 12
6 25 18 28 26 3 7 9 11 14 8 5 -3 9 0 9 6 0 6 4 9 9 5 6 -3 14 3 20 12 6 10
11 14 11 8 0 -5 10 1 21 15 11 14 18 18 14 10 -3 -8 2 -5 11 8 9 12 22 22 30
22 7 0 17 6 21 13 4 8 15 18 24 23 20 11 115 91 141 118 22 24 21 10 3 171
-26 234 -49 345 -124 608 -73 253 -87 313 -121 517 -54 329 -107 499 -205 656
-54 87 -154 192 -229 244 -59 40 -176 90 -266 115 -101 27 -333 30 -432 5z
m-30 -619 c29 -6 90 -11 135 -11 112 -1 220 -16 270 -38 55 -25 160 -113 196
-166 32 -46 96 -216 81 -216 -5 0 -12 5 -15 10 -4 6 -24 19 -45 30 -65 33
-202 22 -285 -23 -38 -21 -79 -56 -73 -62 2 -3 54 6 114 20 134 31 193 31 264
2 59 -24 62 -28 111 -149 17 -43 49 -106 71 -140 l41 -63 -6 -80 c-7 -86 -75
-353 -108 -421 -29 -61 -133 -179 -234 -264 -49 -41 -108 -92 -130 -112 -62
-55 -105 -70 -215 -73 -139 -3 -180 8 -253 67 -140 112 -268 232 -321 302 -83
107 -96 158 -96 369 0 126 -5 200 -21 290 -30 173 -25 290 17 377 46 97 114
179 221 271 53 45 103 94 111 109 l16 27 50 -22 c28 -12 75 -27 104 -34z"/>
<path d="M940 1831 c-39 -21 -130 -98 -130 -111 0 -4 32 8 70 28 94 48 151 52
299 18 63 -14 117 -24 119 -21 6 6 -35 41 -73 62 -82 44 -224 56 -285 24z"/>
<path d="M970 1613 c-51 -9 -140 -55 -138 -71 2 -10 -7 -18 -22 -22 -25 -6
-24 -7 26 -58 l51 -52 66 0 c36 0 111 -5 166 -11 88 -9 104 -9 136 7 20 9 39
23 42 30 11 30 -75 133 -126 149 -12 3 -19 10 -16 15 10 17 -114 25 -185 13z
m108 -71 c4 -30 -26 -42 -44 -17 -10 14 -11 22 -2 32 16 20 42 12 46 -15z
m-95 -26 c-3 -23 0 -53 6 -65 11 -20 10 -21 -30 -21 -45 0 -79 21 -79 50 0 17
44 64 70 73 33 12 38 7 33 -37z m237 -22 c22 -20 40 -42 40 -49 0 -19 -45 -34
-84 -28 -34 5 -35 7 -21 26 8 12 15 36 15 54 0 18 2 33 5 33 3 0 23 -16 45
-36z"/>
<path d="M1697 1614 c-25 -8 -52 -29 -115 -92 -62 -61 -65 -86 -14 -115 30
-18 41 -18 140 -8 59 6 136 11 171 11 64 0 64 0 115 52 50 51 51 52 26 58 -15
4 -24 12 -22 22 4 28 -111 70 -203 74 -44 1 -88 1 -98 -2z m63 -74 c0 -28 -30
-38 -46 -15 -17 23 -9 35 22 35 17 0 24 -5 24 -20z m162 -17 c50 -47 25 -93
-49 -93 -40 0 -43 2 -33 19 14 27 13 84 -2 100 -25 27 55 2 84 -26z m-264 -22
c-1 -17 6 -41 15 -54 16 -24 15 -25 -19 -30 -37 -6 -77 4 -88 22 -7 10 69 91
85 91 4 0 7 -13 7 -29z"/>
<path d="M1498 1494 c-12 -11 -9 -157 3 -193 18 -52 26 -35 18 42 -5 39 -9 92
-11 115 -2 24 -6 40 -10 36z"/>
<path d="M1262 1141 c-16 -46 6 -86 45 -78 17 3 38 -4 61 -19 44 -30 50 -30
92 1 20 15 41 23 52 19 47 -15 77 47 44 92 -13 17 -14 15 -9 -23 l6 -43 -46 0
c-25 0 -49 -5 -53 -11 -4 -7 -22 -9 -48 -5 -22 4 -60 9 -83 12 -41 6 -42 7
-45 47 l-3 42 -13 -34z"/>
<path d="M1710 933 c-29 -12 -50 -13 -120 -5 -107 14 -266 14 -350 1 -46 -7
-78 -7 -113 2 -42 10 -51 9 -65 -5 -16 -15 -15 -17 3 -22 11 -3 36 -32 55 -66
71 -121 152 -168 296 -168 122 0 206 43 279 144 24 34 53 70 64 82 26 26 26
31 4 42 -12 6 -30 4 -53 -5z m-445 -64 c86 -12 246 -10 345 5 47 7 87 11 90 9
8 -7 -40 -43 -59 -44 -12 0 -12 -2 3 -8 17 -6 10 -13 -40 -37 -56 -27 -66 -29
-184 -29 -115 0 -130 2 -182 27 -32 15 -58 29 -58 33 0 3 19 3 43 0 l42 -4
-47 10 c-27 6 -56 22 -70 36 l-23 26 40 -8 c22 -4 67 -11 100 -16z m155 -175
c0 -14 -9 -16 -51 -12 -78 8 -87 28 -11 28 51 0 62 -3 62 -16z m48 5 c-2 -6
-8 -10 -13 -10 -5 0 -11 4 -13 10 -2 6 4 11 13 11 9 0 15 -5 13 -11z"/>
<path d="M1583 823 c9 -2 23 -2 30 0 6 3 -1 5 -18 5 -16 0 -22 -2 -12 -5z"/>
<path d="M1293 813 c15 -2 37 -2 50 0 12 2 0 4 -28 4 -27 0 -38 -2 -22 -4z"/>
<path d="M1498 813 c12 -2 32 -2 45 0 12 2 2 4 -23 4 -25 0 -35 -2 -22 -4z"/>
<path d="M1408 803 c6 -2 18 -2 25 0 6 3 1 5 -13 5 -14 0 -19 -2 -12 -5z"/>
</g>
</svg>
